<svg width="32" height="32" viewBox="0 0 32 32" xmlns="http://www.w3.org/2000/svg">
    <path d="M16 14.8c.906 0 1.646-.286 2.22-.86.574-.574.86-1.314.86-2.22 0-.906-.286-1.646-.86-2.22-.574-.574-1.314-.86-2.22-.86-.906 0-1.646.286-2.22.86-.574.574-.86 1.314-.86 2.22 0 .906.286 1.646.86 2.22.574.574 1.314.86 2.22.86zm0 14.8c1.466 0 2.9-.214 4.3-.64 1.4-.426 2.78-1.174 4.14-2.24-1.36-.96-2.746-1.694-4.16-2.2a12.61 12.61 0 0 0-4.28-.76c-1.44 0-2.866.254-4.28.76-1.414.506-2.8 1.24-4.16 2.2 1.36 1.066 2.74 1.814 4.14 2.24 1.4.426 2.834.64 4.3.64zm0 2.4c-2.186 0-4.254-.42-6.2-1.26a16.23 16.23 0 0 1-5.1-3.44 16.23 16.23 0 0 1-3.44-5.1C.42 20.254 0 18.186 0 16c0-2.214.42-4.286 1.26-6.22A16.288 16.288 0 0 1 4.7 4.7a16.23 16.23 0 0 1 5.1-3.44C11.746.42 13.814 0 16 0c2.214 0 4.286.42 6.22 1.26A16.288 16.288 0 0 1 27.3 4.7a16.288 16.288 0 0 1 3.44 5.08C31.58 11.714 32 13.786 32 16c0 2.186-.42 4.254-1.26 6.2a16.23 16.23 0 0 1-3.44 5.1 16.288 16.288 0 0 1-5.08 3.44C20.286 31.58 18.214 32 16 32zm0-14.8c-1.546 0-2.846-.526-3.9-1.58-1.054-1.054-1.58-2.354-1.58-3.9 0-1.546.526-2.846 1.58-3.9 1.054-1.054 2.354-1.58 3.9-1.58 1.546 0 2.846.526 3.9 1.58 1.054 1.054 1.58 2.354 1.58 3.9 0 1.546-.526 2.846-1.58 3.9-1.054 1.054-2.354 1.58-3.9 1.58zM5.68 25c1.68-1.174 3.346-2.074 5-2.7 1.654-.626 3.426-.94 5.32-.94 1.894 0 3.674.314 5.34.94 1.666.626 3.34 1.526 5.02 2.7 1.174-1.44 2.006-2.894 2.5-4.36A14.45 14.45 0 0 0 29.6 16c0-3.866-1.3-7.1-3.9-9.7-2.6-2.6-5.834-3.9-9.7-3.9-3.866 0-7.1 1.3-9.7 3.9-2.6 2.6-3.9 5.834-3.9 9.7 0 1.626.254 3.174.76 4.64.506 1.466 1.346 2.92 2.52 4.36z" fill="#009FE3" fill-rule="evenodd"/>
</svg>
